<?xml version="1.0" encoding="UTF-8" standalone="no"?>
<!DOCTYPE svg PUBLIC "-//W3C//DTD SVG 1.1//EN"
 "http://www.w3.org/Graphics/SVG/1.1/DTD/svg11.dtd">
<!-- Generated by graphviz version 6.0.2 (20221011.1828)
 -->
<!-- Pages: 1 -->
<svg width="523pt" height="260pt"
 viewBox="0.00 0.00 522.73 260.00" xmlns="http://www.w3.org/2000/svg" xmlns:xlink="http://www.w3.org/1999/xlink">
<g id="graph0" class="graph" transform="scale(1 1) rotate(0) translate(4 256)">
<polygon fill="white" stroke="none" points="-4,4 -4,-256 518.73,-256 518.73,4 -4,4"/>
<!-- [root] aws_default_vpc.default -->
<g id="node1" class="node">
<title>[root] aws_default_vpc.default</title>
<polygon fill="none" stroke="black" points="333.86,-108 180.86,-108 180.86,-72 333.86,-72 333.86,-108"/>
<text text-anchor="middle" x="257.36" y="-86.3" font-family="Times New Roman,serif" font-size="14.00">aws_default_vpc.default</text>
</g>
<!-- [root] provider[&quot;registry.terraform.io/hashicorp/aws&quot;] -->
<g id="node2" class="node">
<title>[root] provider[&quot;registry.terraform.io/hashicorp/aws&quot;]</title>
<polygon fill="none" stroke="black" points="257.36,-36 0.14,-18 257.36,0 514.59,-18 257.36,-36"/>
<text text-anchor="middle" x="257.36" y="-14.3" font-family="Times New Roman,serif" font-size="14.00">provider[&quot;registry.terraform.io/hashicorp/aws&quot;]</text>
</g>
<!-- [root] aws_default_vpc.default&#45;&gt;[root] provider[&quot;registry.terraform.io/hashicorp/aws&quot;] -->
<g id="edge1" class="edge">
<title>[root] aws_default_vpc.default&#45;&gt;[root] provider[&quot;registry.terraform.io/hashicorp/aws&quot;]</title>
<path fill="none" stroke="black" d="M257.36,-71.7C257.36,-63.98 257.36,-54.71 257.36,-46.11"/>
<polygon fill="black" stroke="black" points="260.86,-46.1 257.36,-36.1 253.86,-46.1 260.86,-46.1"/>
</g>
<!-- [root] provider[&quot;registry.terraform.io/hashicorp/aws&quot;] (close) -->
<g id="node3" class="node">
<title>[root] provider[&quot;registry.terraform.io/hashicorp/aws&quot;] (close)</title>
<ellipse fill="none" stroke="black" cx="257.36" cy="-162" rx="232.86" ry="18"/>
<text text-anchor="middle" x="257.36" y="-158.3" font-family="Times New Roman,serif" font-size="14.00">[root] provider[&quot;registry.terraform.io/hashicorp/aws&quot;] (close)</text>
</g>
<!-- [root] provider[&quot;registry.terraform.io/hashicorp/aws&quot;] (close)&#45;&gt;[root] aws_default_vpc.default -->
<g id="edge2" class="edge">
<title>[root] provider[&quot;registry.terraform.io/hashicorp/aws&quot;] (close)&#45;&gt;[root] aws_default_vpc.default</title>
<path fill="none" stroke="black" d="M257.36,-143.7C257.36,-135.98 257.36,-126.71 257.36,-118.11"/>
<polygon fill="black" stroke="black" points="260.86,-118.1 257.36,-108.1 253.86,-118.1 260.86,-118.1"/>
</g>
<!-- [root] root -->
<g id="node4" class="node">
<title>[root] root</title>
<ellipse fill="none" stroke="black" cx="257.36" cy="-234" rx="49.29" ry="18"/>
<text text-anchor="middle" x="257.36" y="-230.3" font-family="Times New Roman,serif" font-size="14.00">[root] root</text>
</g>
<!-- [root] root&#45;&gt;[root] provider[&quot;registry.terraform.io/hashicorp/aws&quot;] (close) -->
<g id="edge3" class="edge">
<title>[root] root&#45;&gt;[root] provider[&quot;registry.terraform.io/hashicorp/aws&quot;] (close)</title>
<path fill="none" stroke="black" d="M257.36,-215.7C257.36,-207.98 257.36,-198.71 257.36,-190.11"/>
<polygon fill="black" stroke="black" points="260.86,-190.1 257.36,-180.1 253.86,-190.1 260.86,-190.1"/>
</g>
</g>
</svg>
